<mxfile host="app.diagrams.net" modified="2023-09-11T04:33:37.603Z" agent="Mozilla/5.0 (Windows NT 10.0; Win64; x64) AppleWebKit/537.36 (KHTML, like Gecko) Chrome/116.0.0.0 Safari/537.36" version="21.7.4" etag="AVbmB7bIyeyvAlS_pevO" type="github">
  <diagram name="第 1 页" id="rDcxsAZZErIUfScaq9i4">
    <mxGraphModel>
      <root>
        <mxCell id="0" />
        <mxCell id="1" parent="0" />
      </root>
    </mxGraphModel>
  </diagram>
</mxfile>
